<?xml version="1.0" encoding="utf-8"?>
<!-- Generator: Adobe Illustrator 26.0.1, SVG Export Plug-In . SVG Version: 6.00 Build 0)  -->
<svg version="1.1" id="Layer_1" xmlns="http://www.w3.org/2000/svg" xmlns:xlink="http://www.w3.org/1999/xlink" x="0px" y="0px"
	 viewBox="0 0 402.5 175.7" style="enable-background:new 0 0 402.5 175.7;" xml:space="preserve">
<style type="text/css">
	.st0{fill:#FFFFFF;}
</style>
<path class="st0" d="M135.2,58.9h-3.9v3.4c0.1,0.6-0.4,1.2-1.1,1.3c-0.6,0.1-1.2-0.4-1.3-1.1c0-0.1,0-0.1,0-0.2V50.6
	c0-0.6,0.5-1.1,1.2-1.2h5.1c1.9-0.1,3.5,1.4,3.6,3.3c0,0.1,0,0.2,0,0.4v2.2c0.1,1.9-1.4,3.5-3.3,3.6
	C135.5,58.9,135.3,58.9,135.2,58.9z M136.5,53.1c0.1-0.6-0.3-1.2-1-1.3c-0.1,0-0.2,0-0.3,0h-3.9v4.8h3.9c0.6,0.1,1.2-0.4,1.3-1
	c0-0.1,0-0.2,0-0.3V53.1z"/>
<path class="st0" d="M149.3,63.4h-2.6c-1.9,0.1-3.6-1.4-3.6-3.4c0-0.1,0-0.2,0-0.3v-6.6c-0.1-1.9,1.4-3.6,3.4-3.6c0.1,0,0.2,0,0.3,0
	h2.6c1.9-0.1,3.5,1.4,3.6,3.3c0,0.1,0,0.2,0,0.4v6.6c0.1,1.9-1.4,3.5-3.3,3.6C149.6,63.4,149.5,63.4,149.3,63.4z M150.6,53.1
	c0.1-0.6-0.3-1.2-1-1.3c-0.1,0-0.2,0-0.3,0h-2.6c-0.6-0.1-1.2,0.4-1.3,1c0,0.1,0,0.2,0,0.3v6.6c-0.1,0.6,0.4,1.2,1,1.3
	c0.1,0,0.2,0,0.3,0h2.6c0.6,0.1,1.2-0.4,1.3-1c0-0.1,0-0.2,0-0.3V53.1z"/>
<path class="st0" d="M165.4,57.2l1.6,4.7c0,0.1,0.1,0.3,0.1,0.4c0,0.6-0.6,1.2-1.2,1.1c-0.5,0-0.9-0.3-1-0.8l-1.7-5.1h-3.4v4.7
	c0.1,0.6-0.4,1.2-1.1,1.3c-0.6,0.1-1.2-0.4-1.3-1.1c0-0.1,0-0.1,0-0.2V50.6c0-0.6,0.5-1.1,1.2-1.2h5.1c1.9-0.1,3.5,1.4,3.6,3.3
	c0,0.1,0,0.2,0,0.4V54C167.3,55.3,166.6,56.6,165.4,57.2z M164.9,53.1c0.1-0.6-0.3-1.2-1-1.3c-0.1,0-0.2,0-0.3,0h-3.9v3.5h3.9
	c0.6,0.1,1.2-0.3,1.3-0.9c0-0.1,0-0.2,0-0.3V53.1z"/>
<path class="st0" d="M179.6,51.8h-2.8v10.5c0,0.6-0.4,1.1-1,1.2c0,0-0.1,0-0.1,0c-0.6,0-1.2-0.5-1.2-1.1c0,0,0-0.1,0-0.1V51.8h-2.8
	c-0.6,0-1.1-0.4-1.2-1.1c0,0,0-0.1,0-0.1c0-0.6,0.5-1.2,1.1-1.2c0,0,0,0,0.1,0h8c0.6,0,1.1,0.5,1.2,1.1c0,0,0,0.1,0,0.1
	c0,0.6-0.4,1.1-1.1,1.2C179.7,51.8,179.6,51.8,179.6,51.8z"/>
<path class="st0" d="M190.5,63.4h-2.6c-1.9,0.1-3.6-1.4-3.6-3.3c0-0.1,0-0.2,0-0.3v-9.1c0.1-0.6,0.6-1.1,1.3-1.1
	c0.6,0.1,1,0.5,1.1,1.1v9.1c-0.1,0.6,0.4,1.2,1,1.3c0.1,0,0.2,0,0.3,0h2.6c0.6,0.1,1.2-0.4,1.3-1c0-0.1,0-0.2,0-0.3v-9.1
	c0.1-0.6,0.6-1.1,1.3-1.1c0.6,0.1,1,0.5,1.1,1.1v9.1c0.1,1.9-1.4,3.5-3.3,3.6C190.7,63.4,190.6,63.4,190.5,63.4z"/>
<path class="st0" d="M204.7,63.4h-2.6c-1.9,0.1-3.6-1.4-3.6-3.3c0-0.1,0-0.2,0-0.3v-6.6c-0.1-1.9,1.4-3.5,3.3-3.6c0.1,0,0.2,0,0.3,0
	h2.6c1.8-0.1,3.4,1.3,3.6,3.1c0,0.1,0,0.1,0,0.2c0,0.6-0.5,1.1-1.1,1.1c0,0,0,0,0,0c-0.6,0-1.1-0.4-1.1-1c0-0.6-0.5-1.1-1.1-1.1
	c-0.1,0-0.1,0-0.2,0h-2.6c-0.6-0.1-1.2,0.4-1.3,1c0,0.1,0,0.2,0,0.3v6.6c-0.1,0.6,0.4,1.2,1,1.3c0.1,0,0.2,0,0.3,0h2.6
	c0.6,0.1,1.2-0.3,1.3-1c0-0.1,0-0.2,0-0.3v-1.8h-1.8c-0.7,0-1.2-0.5-1.2-1.2c0-0.7,0.5-1.2,1.2-1.2h2.9c0.6,0,1.1,0.5,1.2,1.2v3
	c0.1,1.9-1.4,3.5-3.3,3.6C204.9,63.4,204.8,63.4,204.7,63.4z"/>
<path class="st0" d="M218.9,63.4h-2.5c-1.9,0.1-3.6-1.4-3.6-3.3c0-0.1,0-0.2,0-0.3v-9.1c0.1-0.6,0.6-1.1,1.3-1.1
	c0.6,0.1,1,0.5,1.1,1.1v9.1c-0.1,0.6,0.4,1.2,1,1.3c0.1,0,0.2,0,0.3,0h2.6c0.6,0.1,1.2-0.4,1.3-1c0-0.1,0-0.2,0-0.3v-9.1
	c0.1-0.6,0.6-1.1,1.3-1.1c0.6,0.1,1,0.5,1.1,1.1v9.1c0.1,1.9-1.4,3.5-3.3,3.7C219.1,63.4,219,63.4,218.9,63.4z"/>
<path class="st0" d="M235.5,63.4h-7.3c-0.6,0-1.1-0.5-1.2-1.2V50.6c0-0.6,0.5-1.1,1.2-1.2h7.1c0.6,0,1.1,0.5,1.1,1.1
	c0,0,0,0.1,0,0.1c0,0.6-0.4,1.1-1,1.1c0,0-0.1,0-0.1,0h-5.8v3.4h2.4c0.6,0.1,1.1,0.6,1.1,1.3c-0.1,0.6-0.5,1-1.1,1.1h-2.4V61h6.2
	c0.6,0,1.1,0.4,1.1,1c0,0,0,0.1,0,0.1c0.1,0.6-0.4,1.2-1,1.2C235.6,63.4,235.5,63.4,235.5,63.4z"/>
<path class="st0" d="M246.3,63.4h-2.6c-1.9,0.1-3.6-1.5-3.6-3.4c0-0.1,0-0.1,0-0.2c0-0.7,0.6-1.1,1.3-1.1c0.6,0,1,0.5,1.1,1
	c0,0.7,0.5,1.2,1.1,1.2c0.1,0,0.1,0,0.2,0h2.6c0.6,0.1,1.2-0.4,1.3-1c0-0.1,0-0.2,0-0.3c0,0,0-0.3,0-0.7c0-0.4,0-0.7-0.1-1.1
	c-0.2-0.3-0.8-0.5-2.5-0.5c-3,0-4.9-0.7-4.9-4V53c-0.1-1.9,1.4-3.5,3.4-3.6c0.1,0,0.2,0,0.3,0h2.6c1.9-0.1,3.5,1.3,3.6,3.2
	c0,0.1,0,0.2,0,0.3c0,0.6-0.6,1.1-1.2,1.1c-0.6,0-1-0.5-1.1-1c-0.1-0.9-0.4-1.2-1.3-1.2h-2.5c-0.6-0.1-1.2,0.3-1.3,1
	c0,0.1,0,0.2,0,0.3v0.4c0,0.4,0,0.8,0.2,1.1c0.2,0.3,0.8,0.5,2.4,0.5c3.1,0,5,0.7,5,3.5v1.1c0.1,1.9-1.4,3.6-3.3,3.7
	C246.6,63.4,246.5,63.4,246.3,63.4z"/>
<path class="st0" d="M262.8,63.4h-7.3c-0.6-0.1-1.1-0.6-1.1-1.2V50.6c0-0.6,0.5-1.1,1.2-1.2h7.1c0.6,0,1.1,0.5,1.2,1.1
	c0,0,0,0.1,0,0.1c0,0.6-0.4,1.1-1,1.1c0,0-0.1,0-0.1,0h-5.9v3.4h2.4c0.6,0.1,1.1,0.6,1.1,1.3c-0.1,0.6-0.5,1-1.1,1.1h-2.4V61h6.2
	c0.6,0,1.1,0.4,1.1,1c0,0,0,0.1,0,0.1c0.1,0.6-0.4,1.2-1,1.2C262.9,63.4,262.8,63.4,262.8,63.4z"/>
<path class="st0" d="M138.8,94.8h-4.8c-3.3,0.1-6-2.4-6.1-5.7c0-0.2,0-0.3,0-0.5c-0.1-0.8,0.6-1.5,1.4-1.5c0.1,0,0.1,0,0.2,0
	c0.8,0,1.5,0.6,1.5,1.5c0,0,0,0,0,0.1c-0.2,1.5,0.9,2.9,2.5,3.1c0.2,0,0.4,0,0.6,0h4.8c1.5,0.2,2.9-0.9,3.1-2.4c0-0.2,0-0.4,0-0.7
	v-2.9c0-1.9,0-2.9-5.5-2.9c-5.4,0-8.5-1-8.5-6.8v-1c-0.2-3.2,2.3-6,5.6-6.1c0.2,0,0.4,0,0.6,0h4.8c3.2-0.2,5.9,2.2,6.1,5.4
	c0,0.3,0,0.5,0,0.8v0.3c0,0.8-0.6,1.5-1.4,1.5c0,0-0.1,0-0.1,0c-0.8,0-1.5-0.6-1.5-1.4c0,0,0-0.1,0-0.1v-0.3
	c0.2-1.5-0.9-2.9-2.4-3.1c-0.2,0-0.4,0-0.6,0h-4.8c-1.5-0.2-2.9,0.9-3.1,2.4c0,0.2,0,0.4,0,0.6v1c0,3.2,0.5,3.8,5.5,3.8
	c5.9,0,8.5,1.3,8.5,6v2.9c0.2,3.2-2.2,5.9-5.4,6.1C139.2,94.9,139,94.9,138.8,94.8z"/>
<path class="st0" d="M166.2,72h-5.9v21.5c0,0.8-0.6,1.5-1.4,1.5c-0.1,0-0.1,0-0.2,0c-0.8,0-1.5-0.6-1.5-1.5c0,0,0,0,0-0.1V72h-5.9
	c-0.8,0.1-1.5-0.6-1.5-1.4c0-0.1,0-0.1,0-0.2c0-0.8,0.6-1.5,1.4-1.5c0,0,0.1,0,0.1,0h14.9c0.8-0.1,1.5,0.6,1.5,1.4
	c0,0.1,0,0.1,0,0.2c0,0.8-0.6,1.5-1.5,1.5C166.3,72,166.2,72,166.2,72z"/>
<path class="st0" d="M185.6,95c-0.7,0-1.4-0.5-1.5-1.3c-0.3-2.1-0.7-4.1-1-6.1h-8.7l-1.3,6.1c-0.1,0.7-0.7,1.3-1.4,1.3
	c-0.8,0-1.5-0.6-1.6-1.4c0,0,0,0,0-0.1c0-0.3,0-0.5,0.1-0.8l4.3-20.9c0.4-2.1,2.1-3.1,4.4-3.1c3.1,0,4.2,1.7,4.6,4.4l3.5,19.3
	c0,0.3,0.1,0.8,0.1,1.1C187.1,94.4,186.5,95,185.6,95C185.6,95,185.6,95,185.6,95z M180.5,73.6c-0.3-1.3-0.5-1.8-1.5-1.8
	c-1.2,0-1.5,0.6-1.7,1.8l-2.2,11h7.6L180.5,73.6z"/>
<path class="st0" d="M207.4,83l3.2,10.1c0,0.2,0.1,0.3,0.1,0.5c0,0.8-0.7,1.5-1.5,1.5c0,0,0,0-0.1,0c-0.6,0-1.2-0.4-1.4-1l-3.4-10.6
	h-7.4v10.1c0,0.8-0.6,1.5-1.4,1.5c-0.1,0-0.1,0-0.2,0c-0.8,0-1.5-0.6-1.5-1.5c0,0,0,0,0-0.1V70.5c0-0.8,0.7-1.5,1.5-1.5h9.4
	c3.2-0.2,5.9,2.2,6.1,5.4c0,0.2,0,0.5,0,0.7v2.3C211,79.8,209.6,82,207.4,83z M204.8,72h-7.9v8.4h7.9c1.5,0.2,2.9-0.9,3.1-2.4
	c0-0.2,0-0.4,0-0.7v-2.3c0.2-1.5-0.9-2.9-2.4-3.1C205.2,72,205,72,204.8,72L204.8,72z"/>
<path class="st0" d="M232.1,72h-5.9v21.5c0,0.8-0.6,1.5-1.4,1.5c-0.1,0-0.1,0-0.2,0c-0.8,0-1.5-0.6-1.5-1.5c0,0,0,0,0-0.1V72h-5.9
	c-0.8,0.1-1.5-0.6-1.5-1.3c0-0.1,0-0.1,0-0.2c0-0.8,0.6-1.5,1.4-1.5c0,0,0.1,0,0.1,0h14.9c0.8-0.1,1.5,0.6,1.5,1.3
	c0,0.1,0,0.1,0,0.2C233.6,71.3,233,72,232.1,72C232.1,72,232.1,72,232.1,72z"/>
<path class="st0" d="M250,94.8h-4.8c-3.2,0.2-6-2.3-6.1-5.6c0-0.2,0-0.4,0-0.6V70.3c0-0.8,0.6-1.5,1.4-1.5c0.1,0,0.1,0,0.2,0
	c0.8,0,1.5,0.6,1.5,1.5c0,0,0,0,0,0.1v18.4c-0.2,1.5,0.9,2.9,2.4,3.1c0.2,0,0.4,0,0.6,0h4.8c1.5,0.2,2.9-0.9,3.1-2.4
	c0-0.2,0-0.4,0-0.7V70.3c0-0.8,0.6-1.5,1.4-1.5c0.1,0,0.1,0,0.2,0c0.8,0,1.5,0.6,1.5,1.5c0,0,0,0,0,0.1v18.4
	c0.2,3.2-2.2,5.9-5.4,6.1C250.4,94.9,250.2,94.9,250,94.8z"/>
<path class="st0" d="M274.4,86.5h-7.9v7c0,0.8-0.6,1.5-1.4,1.5c-0.1,0-0.1,0-0.2,0c-0.8,0-1.5-0.6-1.5-1.5c0,0,0,0,0-0.1V70.5
	c0-0.8,0.7-1.5,1.5-1.5h9.4c3.2-0.2,5.9,2.2,6.1,5.4c0,0.2,0,0.5,0,0.7v5.3c0.2,3.2-2.2,5.9-5.4,6.1
	C274.9,86.5,274.7,86.5,274.4,86.5z M274.4,72h-7.9v11.5h7.9c1.5,0.2,2.9-0.9,3.1-2.4c0-0.2,0-0.4,0-0.7v-5.3
	c0.2-1.5-0.9-2.9-2.4-3.1C274.9,72,274.6,72,274.4,72L274.4,72z"/>
<path class="st0" d="M142.8,108.8c-1.3,0-2.3-0.9-2.5-2.1c-0.1-0.6-0.4-1-1.6-1h-4.5c-1.1,0-1.6,0.5-1.6,1.6v10.1
	c0,1.1,0.5,1.6,1.6,1.6h4.4c1.1,0,1.4-0.4,1.6-1c0.2-1.2,1.2-2.2,2.5-2.1c1.4-0.1,2.6,1,2.7,2.5c0,0,0,0,0,0.1c0,0.2,0,0.4-0.1,0.6
	c-0.6,3.2-3.4,5.5-6.6,5.3h-4.4c-3.6,0.2-6.7-2.6-6.8-6.3c0-0.2,0-0.4,0-0.6v-10.1c-0.2-3.6,2.6-6.7,6.2-6.8c0.2,0,0.4,0,0.6,0h4.4
	c3.2-0.2,6.1,2.1,6.6,5.3c0,0.2,0.1,0.4,0.1,0.6C145.4,107.8,144.2,108.9,142.8,108.8z"/>
<path class="st0" d="M161.4,124.2H157c-3.6,0.2-6.7-2.7-6.8-6.3c0-0.2,0-0.4,0-0.6v-10.1c-0.2-3.6,2.7-6.7,6.3-6.8
	c0.2,0,0.4,0,0.6,0h4.4c3.6-0.2,6.6,2.6,6.8,6.2c0,0.2,0,0.4,0,0.6v10.1c0.2,3.6-2.6,6.6-6.2,6.8
	C161.8,124.2,161.6,124.2,161.4,124.2z M163,107.3c0-1.2-0.5-1.6-1.6-1.6H157c-0.8-0.1-1.5,0.4-1.6,1.2c0,0.2,0,0.3,0,0.5v10.1
	c0,1.1,0.5,1.6,1.6,1.6h4.4c1.1,0,1.6-0.4,1.6-1.6V107.3z"/>
<path class="st0" d="M191.8,124.4c-1.4,0-2.6-1.1-2.6-2.5c0,0,0-0.1,0-0.1v-11.7h-0.2L186,116c-0.5,1.3-2,1.9-3.3,1.3
	c-0.6-0.3-1.1-0.7-1.3-1.3l-2.9-5.6h-0.1v11.4c0,1.4-1.2,2.6-2.6,2.6c-1.4,0-2.6-1.2-2.6-2.6v-18.7c0-1.4,1.2-2.6,2.6-2.6h1.6
	c0.9,0,1.8,0.5,2.2,1.3l4.1,7.5l4.3-7.6c0.4-0.8,1.3-1.2,2.1-1.2h1.6c1.4,0,2.6,1.2,2.6,2.6v18.7c0,1.4-1.1,2.6-2.5,2.6
	C191.8,124.4,191.8,124.4,191.8,124.4z"/>
<path class="st0" d="M218,124.4c-1.4,0-2.6-1.1-2.6-2.5c0,0,0-0.1,0-0.1v-11.7h-0.2l-2.9,5.9c-0.5,1.3-2,1.9-3.3,1.4
	c-0.6-0.3-1.1-0.7-1.4-1.4l-2.9-5.6h-0.1v11.4c0,1.4-1.2,2.6-2.6,2.6s-2.6-1.2-2.6-2.6v-18.7c0-1.4,1.2-2.6,2.6-2.6h1.6
	c0.9,0,1.8,0.5,2.2,1.3l4.1,7.5l4.3-7.6c0.4-0.8,1.3-1.2,2.1-1.2h1.6c1.4,0,2.6,1.2,2.6,2.6v18.7c0,1.4-1.1,2.6-2.5,2.6
	C218.1,124.4,218,124.4,218,124.4z"/>
<path class="st0" d="M236.9,124.2h-4.4c-3.6,0.2-6.7-2.6-6.8-6.3c0-0.2,0-0.4,0-0.6V103c-0.1-1.4,1-2.7,2.4-2.8s2.7,1,2.8,2.4
	c0,0.1,0,0.2,0,0.3v14.4c0,1.1,0.5,1.6,1.6,1.6h4.4c1.2,0,1.6-0.4,1.6-1.6V103c-0.1-1.4,1-2.7,2.4-2.8s2.7,1,2.8,2.4
	c0,0.1,0,0.2,0,0.3v14.4c0.2,3.6-2.6,6.6-6.2,6.8C237.3,124.2,237.1,124.2,236.9,124.2z"/>
<path class="st0" d="M263.8,124.2h-1.6c-1,0-1.9-0.5-2.3-1.4l-5.9-11.8v10.8c0.1,1.4-1,2.7-2.4,2.8s-2.7-1-2.8-2.4
	c0-0.1,0-0.2,0-0.3v-18.7c0-1.4,1.2-2.6,2.6-2.6h1.6c1-0.1,1.9,0.5,2.3,1.4l5.9,11.9V103c-0.1-1.4,1-2.7,2.4-2.8
	c1.4-0.1,2.7,1,2.8,2.4c0,0.1,0,0.2,0,0.3v18.7C266.3,123.1,265.2,124.2,263.8,124.2z"/>
<path class="st0" d="M279.7,124.2h-6.4c-1.4,0.1-2.7-1-2.8-2.4c-0.1-1.4,1-2.7,2.4-2.8c0.1,0,0.2,0,0.3,0h0.6v-13.3h-0.6
	c-1.4,0.1-2.7-1-2.8-2.4c-0.1-1.4,1-2.7,2.4-2.8c0.1,0,0.2,0,0.3,0h6.4c1.4-0.1,2.7,1,2.8,2.4c0.1,1.4-1,2.7-2.4,2.8
	c-0.1,0-0.2,0-0.3,0h-0.6V119h0.6c1.4-0.1,2.7,1,2.8,2.4c0.1,1.4-1,2.7-2.4,2.8C280,124.2,279.9,124.2,279.7,124.2L279.7,124.2z"/>
<path class="st0" d="M301.7,105.7h-4.2v16.1c0,1.4-1.2,2.6-2.6,2.6c-1.4,0-2.6-1.2-2.6-2.6v-16.1H288c-1.4-0.1-2.5-1.3-2.4-2.8
	c0.1-1.3,1.1-2.4,2.4-2.4h13.6c1.4-0.1,2.7,1,2.8,2.4c0.1,1.4-1,2.7-2.4,2.8C301.9,105.7,301.8,105.7,301.7,105.7L301.7,105.7z"/>
<path class="st0" d="M325.1,104.2c-2.9,5.3-4.8,9-6.3,11.2v6.3c0.1,1.4-1,2.7-2.4,2.8c-1.4,0.1-2.7-1-2.8-2.4c0-0.1,0-0.2,0-0.3
	v-6.4c-1.4-2.2-3.2-5.9-5.9-11.2c-0.2-0.4-0.3-0.8-0.3-1.3c0.1-1.5,1.3-2.6,2.7-2.6c1,0,1.8,0.6,2.2,1.4l4,7.8l4.2-7.9
	c0.4-0.8,1.3-1.4,2.2-1.4c1.5,0,2.7,1.1,2.7,2.6C325.5,103.4,325.3,103.8,325.1,104.2z"/>
<path class="st0" d="M15.9,113.5c-8.7,0-14.8-6.1-14.8-14.8c0.1-3.3,2.9-5.8,6.1-5.6c3.1,0.1,5.5,2.6,5.6,5.6c0,2.2,0.8,3,3,3h8.5
	c2.1,0,3-0.9,3-3V93c0-2.1-0.9-3-3-3h-3.7c-2.2,0-4.2-1.1-5.2-3c-0.5-0.7-0.7-1.6-0.6-2.5c0.1-1.2,1.5-3.8,2-4.7
	c0.1-0.2,5.4-10.4,5.4-10.4h-17V57.5h27.3c3.1,0.2,5.5,2.8,5.5,5.9c0,1-0.2,1.9-0.8,2.7l-6.7,12.9c1.1,0.3,2.1,0.8,3,1.4
	c2,1.4,3.3,3.5,4.3,6.2c0.8,2,1.3,4.2,1.3,6.4v5.7c0,8.7-6.1,14.8-14.8,14.8H15.9z M66.1,98.4c8.7,0,14.8-6.1,14.8-14.8v-6.4
	c0-8.7-6.1-14.8-14.8-14.8h-11v-8.9h21.5V41.8H49.2c-3.2,0.1-5.8,2.7-5.8,5.9v20.2c-0.1,3.2,2.5,5.8,5.7,5.9c0,0,0.1,0,0.1,0h17
	c2.1,0,3,0.9,3,3v6.8c0,2.1-0.9,3-3,3h-8.5c-2.2,0-2.7-0.8-3-2.1c-0.4-2.9-2.8-5-5.7-4.9c-3.2-0.1-5.8,2.3-6,5.5c0,0.1,0,0.2,0,0.3
	c0,0.4,0,0.8,0.1,1.2c1.2,7.2,6.9,11.9,14.6,11.9L66.1,98.4z M111,102.5V90.7h-6.5V53.1c-0.1-3.2-2.7-5.8-5.9-5.9H83.4V59h9.3v31.7
	h-4.5c-1,0.1-2,0.4-2.9,0.9c-1.8,0.9-2.9,2.8-2.8,4.8c-0.2,2.1,0.9,4.2,2.7,5.3c0.9,0.5,2,0.8,3,0.8L111,102.5z M68,132.5
	c0.1-0.1,0.2-0.3,0.3-0.4c0.9-1,1.5-2.3,1.7-3.7c0.1-1.6-0.5-3.1-1.7-4.2c-1.1-1.1-2.6-1.7-4.1-1.8h-0.5c-2.4,0-3.6,1.5-4.9,3
	c-1.9,2.3-4.7,3.7-7.7,3.8c-3.6,0-6.2-2-9.1-4l-0.2-0.1c-4.6-3.4-9.6-6.5-15.2-6.5c-14.2,0-19.3,11.2-19.3,11.3l-0.5,1.2l10.3,4.1
	l0.6-0.7c2.5-3.1,5-4.5,7.8-4.5c4.1,0,6.7,2.1,9.3,4.2l0.5,0.4c0.9,0.8,1.9,1.5,2.9,2.2c3.4,2.3,7.3,3.7,11.4,3.9
	c0.6,0,1.1,0.1,1.7,0.1C57.8,140.8,64,137.8,68,132.5L68,132.5z M100.7,120c2.6-2.9,4-6.7,3.9-10.6v-1.3H92.8l-0.1,1.2
	c-0.1,0.9-0.3,1.7-0.8,2.5c-0.8,1.5-2.4,2.3-4.1,2.2c-2.6,0-4.4-1.4-6.8-3.2c-0.4-0.3-0.8-0.7-1.3-1c-4.1-3-8.6-5.8-14.5-6.2
	c-0.6,0-1.2-0.1-1.7-0.1c-6.6-0.1-12.8,2.8-17,7.8c-1.1,1.2-1.8,2.7-2,4.3c-0.2,1.5,0.3,3.1,1.3,4.2c1.1,1.1,2.5,1.7,4.1,1.8h0.4
	c2,0,3.9-1,5.1-2.6c1.8-2.5,4.7-4,7.8-4.1c0.2,0,0.4,0,0.6,0c3.5,0.3,6.5,2.5,9.4,4.6c1,0.7,1.9,1.4,2.8,2c2.9,2,6.2,3.9,10.9,3.9
	C92.8,125.5,97.6,123.6,100.7,120z"/>
</svg>
